<mxfile host="app.diagrams.net" modified="2023-07-04T08:49:50.369Z" agent="Mozilla/5.0 (X11; Linux x86_64) AppleWebKit/537.36 (KHTML, like Gecko) Chrome/114.0.0.0 Safari/537.36" etag="NQVmHl13ZEqxDGg92QaG" version="21.5.2" type="github">
  <diagram name="Page-1" id="__P3bBkNyp0BzFhK09_J">
    <mxGraphModel dx="7422" dy="1632" grid="1" gridSize="10" guides="1" tooltips="1" connect="1" arrows="1" fold="1" page="1" pageScale="1" pageWidth="827" pageHeight="1169" math="0" shadow="0">
      <root>
        <mxCell id="0" />
        <mxCell id="1" parent="0" />
        <mxCell id="Lb2MdEJ-lgtvsfjXcVbQ-63" value="" style="whiteSpace=wrap;html=1;aspect=fixed;strokeColor=#66CC00;fillColor=none;strokeWidth=2;rounded=0;perimeterSpacing=0;dashed=1;" parent="1" vertex="1">
          <mxGeometry x="-5810" y="-53" width="470" height="470" as="geometry" />
        </mxCell>
        <mxCell id="Lb2MdEJ-lgtvsfjXcVbQ-76" value="" style="whiteSpace=wrap;html=1;aspect=fixed;fillColor=none;dashed=1;strokeColor=#000099;strokeWidth=2;" parent="1" vertex="1">
          <mxGeometry x="-5790" y="97" width="243" height="243" as="geometry" />
        </mxCell>
        <mxCell id="Lb2MdEJ-lgtvsfjXcVbQ-100" value="" style="rounded=0;whiteSpace=wrap;html=1;fillColor=none;strokeColor=#009999;strokeWidth=2;dashed=1;" parent="1" vertex="1">
          <mxGeometry x="-5780" y="117" width="184" height="140" as="geometry" />
        </mxCell>
        <mxCell id="Lb2MdEJ-lgtvsfjXcVbQ-4" value="" style="points=[[0.714,0.338,0],[0.549,0.2,0],[0.85,0.198,0]];html=1;overflow=block;blockSpacing=1;whiteSpace=wrap;fontSize=13;spacing=3.8;strokeColor=#3a414a;strokeOpacity=100;fillOpacity=100;rounded=1;absoluteArcSize=1;arcSize=9;fillColor=#cfe4ff;strokeWidth=7.5;lucidId=tHR.RqMFKNO4;" parent="1" vertex="1">
          <mxGeometry x="-6376" y="-35" width="423" height="304" as="geometry" />
        </mxCell>
        <mxCell id="Lb2MdEJ-lgtvsfjXcVbQ-5" value="" style="html=1;overflow=block;blockSpacing=1;whiteSpace=wrap;shape=image;fontSize=13;spacing=0;strokeColor=none;strokeOpacity=100;strokeWidth=0;image=https://images.lucid.app/images/0839ae5e-1928-40da-9dd1-2a745bce146e/content;imageAspect=0;lucidId=lZQ.nhfzFDih;" parent="1" vertex="1">
          <mxGeometry x="-6120" y="71" width="91" height="60" as="geometry" />
        </mxCell>
        <mxCell id="Lb2MdEJ-lgtvsfjXcVbQ-6" value="" style="html=1;overflow=block;blockSpacing=1;whiteSpace=wrap;shape=image;fontSize=13;spacing=0;strokeColor=none;strokeOpacity=100;strokeWidth=0;image=https://images.lucid.app/images/5dbf9200-86ef-41af-bba9-ffb445953cea/content;imageAspect=0;lucidId=1ZQ.fj6Nxm91;" parent="1" vertex="1">
          <mxGeometry x="-6317" y="-7" width="73" height="69" as="geometry" />
        </mxCell>
        <mxCell id="Lb2MdEJ-lgtvsfjXcVbQ-9" value="" style="html=1;overflow=block;blockSpacing=1;whiteSpace=wrap;shape=image;fontSize=13;spacing=0;strokeColor=none;strokeOpacity=100;strokeWidth=0;image=https://images.lucid.app/images/7aab2980-8390-469f-9542-503a8dc7d49c/content;imageAspect=0;lucidId=39Q.k~S7HBWE;" parent="1" vertex="1">
          <mxGeometry x="-6141" y="-269" width="133" height="113" as="geometry" />
        </mxCell>
        <mxCell id="Lb2MdEJ-lgtvsfjXcVbQ-10" value="" style="html=1;overflow=block;blockSpacing=1;whiteSpace=wrap;shape=image;fontSize=13;spacing=0;strokeColor=none;strokeOpacity=100;strokeWidth=0;image=https://images.lucid.app/images/96fd7c5d-47f8-4f27-a543-2824d02b5435/content;imageAspect=0;lucidId=p~Q.Xl.0O8On;" parent="1" vertex="1">
          <mxGeometry x="-6361" y="-254" width="76" height="76" as="geometry" />
        </mxCell>
        <mxCell id="Lb2MdEJ-lgtvsfjXcVbQ-12" value="" style="html=1;jettySize=18;whiteSpace=wrap;fontSize=13;strokeColor=#3a414a;strokeOpacity=100;strokeWidth=3.8;rounded=1;arcSize=12;edgeStyle=orthogonalEdgeStyle;startArrow=none;endArrow=block;endFill=1;exitX=0.5;exitY=1;exitPerimeter=0;lucidId=YYS.RZbuwzPK;" parent="1" edge="1">
          <mxGeometry width="100" height="100" relative="1" as="geometry">
            <Array as="points">
              <mxPoint x="-6326" y="-140" />
              <mxPoint x="-6191" y="-140" />
              <mxPoint x="-6191" y="101" />
            </Array>
            <mxPoint x="-6326" y="-178" as="sourcePoint" />
            <mxPoint x="-6102" y="101" as="targetPoint" />
          </mxGeometry>
        </mxCell>
        <mxCell id="Lb2MdEJ-lgtvsfjXcVbQ-13" value="VM- 1" style="html=1;overflow=block;blockSpacing=1;whiteSpace=wrap;fontSize=16.7;fontColor=#3a414a;spacing=3.8;strokeOpacity=0;fillOpacity=0;rounded=1;absoluteArcSize=1;arcSize=9;fillColor=#ffffff;strokeWidth=0.8;lucidId=PZS.uT0q8Rq6;" parent="1" vertex="1">
          <mxGeometry x="-6326" y="71" width="91" height="25" as="geometry" />
        </mxCell>
        <mxCell id="Lb2MdEJ-lgtvsfjXcVbQ-21" value="" style="html=1;overflow=block;blockSpacing=1;whiteSpace=wrap;shape=image;fontSize=13;spacing=0;strokeColor=none;strokeOpacity=100;strokeWidth=0;image=https://images.lucid.app/images/77aa2bb6-9937-4ae3-a3e1-917ee15fafa7/content;imageAspect=0;lucidId=PaT.EkcdLVLc;" parent="1" vertex="1">
          <mxGeometry x="-6326" y="152" width="110" height="26" as="geometry" />
        </mxCell>
        <mxCell id="Lb2MdEJ-lgtvsfjXcVbQ-22" value="OS" style="html=1;overflow=block;blockSpacing=1;whiteSpace=wrap;fontSize=16.7;fontColor=#3a414a;spacing=3.8;strokeOpacity=0;fillOpacity=0;rounded=1;absoluteArcSize=1;arcSize=9;fillColor=#ffffff;strokeWidth=0.8;lucidId=~aT.bKo5OBzp;" parent="1" vertex="1">
          <mxGeometry x="-6311" y="181" width="60" height="35" as="geometry" />
        </mxCell>
        <mxCell id="Lb2MdEJ-lgtvsfjXcVbQ-23" value="Source Code Repo" style="html=1;overflow=block;blockSpacing=1;whiteSpace=wrap;fontSize=16.7;fontColor=#3a414a;fontStyle=1;spacing=3.8;strokeOpacity=0;fillOpacity=0;rounded=1;absoluteArcSize=1;arcSize=9;fillColor=#ffffff;strokeWidth=0.8;lucidId=rfT.Em8CiN_r;" parent="1" vertex="1">
          <mxGeometry x="-6414" y="-310" width="189" height="43" as="geometry" />
        </mxCell>
        <mxCell id="Lb2MdEJ-lgtvsfjXcVbQ-24" value="" style="shape=doubleArrow;arrowWidth=0.5;arrowSize=0.20134228187919462;whiteSpace=wrap;fontSize=13;spacing=3.8;strokeColor=#3a414a;strokeOpacity=100;rounded=1;absoluteArcSize=1;arcSize=9;rotation=-270;strokeWidth=3;html=1;" parent="1" vertex="1">
          <mxGeometry x="-6179" y="-80" width="209" height="60" as="geometry" />
        </mxCell>
        <mxCell id="Lb2MdEJ-lgtvsfjXcVbQ-25" value="Docker Hub" style="html=1;overflow=block;blockSpacing=1;whiteSpace=wrap;fontSize=16.7;fontColor=#3a414a;fontStyle=1;spacing=3.8;strokeOpacity=0;fillOpacity=0;rounded=1;absoluteArcSize=1;arcSize=9;fillColor=#ffffff;strokeWidth=0.8;lucidId=KgT.KoDKqtLL;" parent="1" vertex="1">
          <mxGeometry x="-6165" y="-310" width="181" height="43" as="geometry" />
        </mxCell>
        <mxCell id="Lb2MdEJ-lgtvsfjXcVbQ-35" value="" style="html=1;jettySize=18;whiteSpace=wrap;fontSize=13;strokeColor=#3a414a;strokeOpacity=100;strokeWidth=3.8;rounded=1;arcSize=12;edgeStyle=orthogonalEdgeStyle;startArrow=none;endArrow=block;endFill=1;exitX=1;exitY=0.5;lucidId=XIT.VC7dbxih;exitDx=0;exitDy=0;" parent="1" source="Lb2MdEJ-lgtvsfjXcVbQ-5" target="Lb2MdEJ-lgtvsfjXcVbQ-65" edge="1">
          <mxGeometry width="100" height="100" relative="1" as="geometry">
            <Array as="points">
              <mxPoint x="-6000" y="101" />
              <mxPoint x="-6000" y="10" />
            </Array>
            <mxPoint x="-5750" y="10" as="targetPoint" />
          </mxGeometry>
        </mxCell>
        <mxCell id="Lb2MdEJ-lgtvsfjXcVbQ-48" value="Docker Image Push/Pull" style="html=1;overflow=block;blockSpacing=1;whiteSpace=wrap;fontSize=16.7;fontColor=#3a414a;fontStyle=1;spacing=3.8;strokeOpacity=0;fillOpacity=0;rounded=1;absoluteArcSize=1;arcSize=9;fillColor=#ffffff;strokeWidth=0.8;lucidId=Dp-.tNbPMVZ.;" parent="1" vertex="1">
          <mxGeometry x="-6052" y="-106" width="128" height="53" as="geometry" />
        </mxCell>
        <mxCell id="Lb2MdEJ-lgtvsfjXcVbQ-49" value="Code Pull From Github" style="html=1;overflow=block;blockSpacing=1;whiteSpace=wrap;fontSize=16.7;fontColor=#3a414a;fontStyle=1;spacing=3.8;strokeOpacity=0;fillOpacity=0;rounded=1;absoluteArcSize=1;arcSize=9;fillColor=#ffffff;strokeWidth=0.8;lucidId=_p-.m4A0VA30;" parent="1" vertex="1">
          <mxGeometry x="-6339" y="-122" width="138" height="43" as="geometry" />
        </mxCell>
        <mxCell id="Lb2MdEJ-lgtvsfjXcVbQ-50" value="AWS EC2 Deployment Pipeline" style="html=1;overflow=block;blockSpacing=1;whiteSpace=wrap;fontSize=13.3;fontColor=#333333;fontStyle=1;align=center;spacing=3.8;strokeOpacity=0;fillOpacity=0;rounded=1;absoluteArcSize=1;arcSize=9;fillColor=#ffffff;strokeWidth=0.8;lucidId=1q-.gLM~SQ97;" parent="1" vertex="1">
          <mxGeometry x="-5946" y="14" width="136" height="48" as="geometry" />
        </mxCell>
        <mxCell id="Lb2MdEJ-lgtvsfjXcVbQ-51" value="" style="html=1;overflow=block;blockSpacing=1;whiteSpace=wrap;shape=image;fontSize=13;spacing=0;strokeColor=none;strokeOpacity=100;strokeWidth=0;image=https://images.lucid.app/images/9f01b302-5040-4e6e-be54-d4b0a862a444/content;imageAspect=0;lucidId=st-.MnG1-Kka;" parent="1" vertex="1">
          <mxGeometry x="-6520" y="-235" width="52" height="46" as="geometry" />
        </mxCell>
        <mxCell id="Lb2MdEJ-lgtvsfjXcVbQ-52" value="" style="html=1;jettySize=18;whiteSpace=wrap;fontSize=13;strokeColor=#3a414a;strokeOpacity=100;strokeWidth=3.8;rounded=1;arcSize=12;edgeStyle=orthogonalEdgeStyle;startArrow=none;endArrow=block;endFill=1;exitX=1;exitY=0.5;exitPerimeter=0;entryX=0;entryY=0.55;entryPerimeter=0;lucidId=3t-.5YrvoPGL;" parent="1" source="Lb2MdEJ-lgtvsfjXcVbQ-51" target="Lb2MdEJ-lgtvsfjXcVbQ-10" edge="1">
          <mxGeometry width="100" height="100" relative="1" as="geometry">
            <Array as="points" />
          </mxGeometry>
        </mxCell>
        <mxCell id="Lb2MdEJ-lgtvsfjXcVbQ-53" value="Code Push" style="html=1;overflow=block;blockSpacing=1;whiteSpace=wrap;fontSize=16.7;fontColor=#3a414a;fontStyle=1;spacing=3.8;strokeOpacity=0;fillOpacity=0;rounded=1;absoluteArcSize=1;arcSize=9;fillColor=#ffffff;strokeWidth=0.8;lucidId=mu-.389LFaOt;" parent="1" vertex="1">
          <mxGeometry x="-6464" y="-202" width="103" height="34" as="geometry" />
        </mxCell>
        <mxCell id="Lb2MdEJ-lgtvsfjXcVbQ-64" value="&lt;b&gt;Amazone VPC&lt;/b&gt;" style="text;html=1;strokeColor=none;fillColor=none;align=center;verticalAlign=middle;whiteSpace=wrap;rounded=0;" parent="1" vertex="1">
          <mxGeometry x="-5630" y="417" width="110" height="30" as="geometry" />
        </mxCell>
        <mxCell id="Lb2MdEJ-lgtvsfjXcVbQ-107" style="edgeStyle=orthogonalEdgeStyle;rounded=0;orthogonalLoop=1;jettySize=auto;html=1;exitX=1;exitY=0.5;exitDx=0;exitDy=0;exitPerimeter=0;entryX=0.603;entryY=-0.03;entryDx=0;entryDy=0;entryPerimeter=0;strokeWidth=2;" parent="1" source="Lb2MdEJ-lgtvsfjXcVbQ-65" target="Lb2MdEJ-lgtvsfjXcVbQ-100" edge="1">
          <mxGeometry relative="1" as="geometry" />
        </mxCell>
        <mxCell id="Lb2MdEJ-lgtvsfjXcVbQ-65" value="" style="sketch=0;points=[[0,0,0],[0.25,0,0],[0.5,0,0],[0.75,0,0],[1,0,0],[0,1,0],[0.25,1,0],[0.5,1,0],[0.75,1,0],[1,1,0],[0,0.25,0],[0,0.5,0],[0,0.75,0],[1,0.25,0],[1,0.5,0],[1,0.75,0]];outlineConnect=0;fontColor=#232F3E;gradientColor=#F78E04;gradientDirection=north;fillColor=#D05C17;strokeColor=#ffffff;dashed=0;verticalLabelPosition=bottom;verticalAlign=top;align=center;html=1;fontSize=12;fontStyle=0;aspect=fixed;shape=mxgraph.aws4.resourceIcon;resIcon=mxgraph.aws4.ec2;" parent="1" vertex="1">
          <mxGeometry x="-5780" y="-20" width="78" height="78" as="geometry" />
        </mxCell>
        <mxCell id="Lb2MdEJ-lgtvsfjXcVbQ-67" value="&lt;b&gt;Public EC2&lt;/b&gt;" style="text;html=1;strokeColor=none;fillColor=none;align=center;verticalAlign=middle;whiteSpace=wrap;rounded=0;" parent="1" vertex="1">
          <mxGeometry x="-5780" y="58" width="81" height="30" as="geometry" />
        </mxCell>
        <mxCell id="Lb2MdEJ-lgtvsfjXcVbQ-91" style="edgeStyle=orthogonalEdgeStyle;rounded=0;orthogonalLoop=1;jettySize=auto;html=1;strokeWidth=2;" parent="1" source="Lb2MdEJ-lgtvsfjXcVbQ-76" target="Lb2MdEJ-lgtvsfjXcVbQ-90" edge="1">
          <mxGeometry relative="1" as="geometry">
            <Array as="points">
              <mxPoint x="-5500" y="170" />
              <mxPoint x="-5500" y="170" />
            </Array>
          </mxGeometry>
        </mxCell>
        <mxCell id="Lb2MdEJ-lgtvsfjXcVbQ-78" value="" style="sketch=0;points=[[0,0,0],[0.25,0,0],[0.5,0,0],[0.75,0,0],[1,0,0],[0,1,0],[0.25,1,0],[0.5,1,0],[0.75,1,0],[1,1,0],[0,0.25,0],[0,0.5,0],[0,0.75,0],[1,0.25,0],[1,0.5,0],[1,0.75,0]];outlineConnect=0;fontColor=#232F3E;gradientColor=#F78E04;gradientDirection=north;fillColor=#D05C17;strokeColor=#ffffff;dashed=0;verticalLabelPosition=bottom;verticalAlign=top;align=center;html=1;fontSize=12;fontStyle=0;aspect=fixed;shape=mxgraph.aws4.resourceIcon;resIcon=mxgraph.aws4.ec2;" parent="1" vertex="1">
          <mxGeometry x="-5771" y="125" width="60" height="60" as="geometry" />
        </mxCell>
        <mxCell id="Lb2MdEJ-lgtvsfjXcVbQ-79" value="" style="sketch=0;points=[[0,0,0],[0.25,0,0],[0.5,0,0],[0.75,0,0],[1,0,0],[0,1,0],[0.25,1,0],[0.5,1,0],[0.75,1,0],[1,1,0],[0,0.25,0],[0,0.5,0],[0,0.75,0],[1,0.25,0],[1,0.5,0],[1,0.75,0]];outlineConnect=0;fontColor=#232F3E;gradientColor=#F78E04;gradientDirection=north;fillColor=#D05C17;strokeColor=#ffffff;dashed=0;verticalLabelPosition=bottom;verticalAlign=top;align=center;html=1;fontSize=12;fontStyle=0;aspect=fixed;shape=mxgraph.aws4.resourceIcon;resIcon=mxgraph.aws4.ec2;" parent="1" vertex="1">
          <mxGeometry x="-5664" y="125" width="60" height="60" as="geometry" />
        </mxCell>
        <mxCell id="Lb2MdEJ-lgtvsfjXcVbQ-80" value="Target Group" style="text;html=1;strokeColor=none;fillColor=none;align=center;verticalAlign=middle;whiteSpace=wrap;rounded=0;" parent="1" vertex="1">
          <mxGeometry x="-5720" y="350" width="84" height="30" as="geometry" />
        </mxCell>
        <mxCell id="Lb2MdEJ-lgtvsfjXcVbQ-82" value="Private EC2" style="text;html=1;strokeColor=none;fillColor=none;align=center;verticalAlign=middle;whiteSpace=wrap;rounded=0;" parent="1" vertex="1">
          <mxGeometry x="-5730" y="185" width="80" height="30" as="geometry" />
        </mxCell>
        <mxCell id="Lb2MdEJ-lgtvsfjXcVbQ-83" value="Frontend &amp;amp; Backend" style="text;html=1;strokeColor=none;fillColor=none;align=center;verticalAlign=middle;whiteSpace=wrap;rounded=0;" parent="1" vertex="1">
          <mxGeometry x="-5748" y="210.5" width="120" height="30" as="geometry" />
        </mxCell>
        <mxCell id="Lb2MdEJ-lgtvsfjXcVbQ-99" value="" style="edgeStyle=orthogonalEdgeStyle;rounded=0;orthogonalLoop=1;jettySize=auto;html=1;" parent="1" source="Lb2MdEJ-lgtvsfjXcVbQ-84" target="Lb2MdEJ-lgtvsfjXcVbQ-100" edge="1">
          <mxGeometry relative="1" as="geometry">
            <Array as="points">
              <mxPoint x="-5519" y="330" />
              <mxPoint x="-5519" y="200" />
            </Array>
          </mxGeometry>
        </mxCell>
        <mxCell id="Lb2MdEJ-lgtvsfjXcVbQ-84" value="" style="sketch=0;points=[[0,0,0],[0.25,0,0],[0.5,0,0],[0.75,0,0],[1,0,0],[0,1,0],[0.25,1,0],[0.5,1,0],[0.75,1,0],[1,1,0],[0,0.25,0],[0,0.5,0],[0,0.75,0],[1,0.25,0],[1,0.5,0],[1,0.75,0]];outlineConnect=0;fontColor=#232F3E;gradientColor=#4D72F3;gradientDirection=north;fillColor=#3334B9;strokeColor=#ffffff;dashed=0;verticalLabelPosition=bottom;verticalAlign=top;align=center;html=1;fontSize=12;fontStyle=0;aspect=fixed;shape=mxgraph.aws4.resourceIcon;resIcon=mxgraph.aws4.rds;" parent="1" vertex="1">
          <mxGeometry x="-5452.25" y="300" width="60" height="60" as="geometry" />
        </mxCell>
        <mxCell id="Lb2MdEJ-lgtvsfjXcVbQ-85" value="AWS RDS" style="text;html=1;strokeColor=none;fillColor=none;align=center;verticalAlign=middle;whiteSpace=wrap;rounded=0;" parent="1" vertex="1">
          <mxGeometry x="-5457.25" y="360" width="70" height="30" as="geometry" />
        </mxCell>
        <mxCell id="Lb2MdEJ-lgtvsfjXcVbQ-97" style="edgeStyle=orthogonalEdgeStyle;rounded=0;orthogonalLoop=1;jettySize=auto;html=1;" parent="1" source="Lb2MdEJ-lgtvsfjXcVbQ-88" edge="1">
          <mxGeometry relative="1" as="geometry">
            <mxPoint x="-5280" y="19.25" as="targetPoint" />
            <Array as="points">
              <mxPoint x="-5420" y="20" />
              <mxPoint x="-5420" y="20" />
            </Array>
          </mxGeometry>
        </mxCell>
        <mxCell id="Lb2MdEJ-lgtvsfjXcVbQ-88" value="" style="outlineConnect=0;dashed=0;verticalLabelPosition=bottom;verticalAlign=top;align=center;html=1;shape=mxgraph.aws3.route_53;fillColor=#F58536;gradientColor=none;" parent="1" vertex="1">
          <mxGeometry x="-5456.75" y="-20" width="70.5" height="85.5" as="geometry" />
        </mxCell>
        <mxCell id="Lb2MdEJ-lgtvsfjXcVbQ-89" value="Project Deployment" style="text;html=1;strokeColor=none;fillColor=none;align=center;verticalAlign=middle;whiteSpace=wrap;rounded=0;" parent="1" vertex="1">
          <mxGeometry x="-5662" y="34" width="84" height="30" as="geometry" />
        </mxCell>
        <mxCell id="Lb2MdEJ-lgtvsfjXcVbQ-95" style="edgeStyle=orthogonalEdgeStyle;rounded=0;orthogonalLoop=1;jettySize=auto;html=1;exitX=0.5;exitY=0;exitDx=0;exitDy=0;exitPerimeter=0;entryX=0.5;entryY=1;entryDx=0;entryDy=0;entryPerimeter=0;" parent="1" edge="1">
          <mxGeometry relative="1" as="geometry">
            <mxPoint x="-5422.65" y="168.5" as="sourcePoint" />
            <mxPoint x="-5421.9" y="91.5" as="targetPoint" />
          </mxGeometry>
        </mxCell>
        <mxCell id="Lb2MdEJ-lgtvsfjXcVbQ-90" value="" style="outlineConnect=0;dashed=0;verticalLabelPosition=bottom;verticalAlign=top;align=center;html=1;shape=mxgraph.aws3.application_load_balancer;fillColor=#F58534;gradientColor=none;" parent="1" vertex="1">
          <mxGeometry x="-5456.75" y="142.5" width="69" height="72" as="geometry" />
        </mxCell>
        <mxCell id="Lb2MdEJ-lgtvsfjXcVbQ-92" value="Application Load Balancer" style="text;html=1;strokeColor=none;fillColor=none;align=center;verticalAlign=middle;whiteSpace=wrap;rounded=0;" parent="1" vertex="1">
          <mxGeometry x="-5480" y="219.5" width="115.5" height="30" as="geometry" />
        </mxCell>
        <mxCell id="Lb2MdEJ-lgtvsfjXcVbQ-96" value="Route 53" style="text;html=1;strokeColor=none;fillColor=none;align=center;verticalAlign=middle;whiteSpace=wrap;rounded=0;" parent="1" vertex="1">
          <mxGeometry x="-5451.5" y="65.5" width="60" height="30" as="geometry" />
        </mxCell>
        <mxCell id="Lb2MdEJ-lgtvsfjXcVbQ-98" value="" style="outlineConnect=0;dashed=0;verticalLabelPosition=bottom;verticalAlign=top;align=center;html=1;shape=mxgraph.aws3.users;fillColor=#6a00ff;fontColor=#ffffff;strokeColor=#3700CC;" parent="1" vertex="1">
          <mxGeometry x="-5280" y="-2.119999999999999" width="50" height="42.25" as="geometry" />
        </mxCell>
        <mxCell id="Lb2MdEJ-lgtvsfjXcVbQ-101" style="edgeStyle=orthogonalEdgeStyle;rounded=0;orthogonalLoop=1;jettySize=auto;html=1;exitX=0.5;exitY=1;exitDx=0;exitDy=0;" parent="1" source="Lb2MdEJ-lgtvsfjXcVbQ-100" target="Lb2MdEJ-lgtvsfjXcVbQ-100" edge="1">
          <mxGeometry relative="1" as="geometry" />
        </mxCell>
        <mxCell id="Lb2MdEJ-lgtvsfjXcVbQ-102" value="Auto Scaling Group" style="text;html=1;strokeColor=none;fillColor=none;align=center;verticalAlign=middle;whiteSpace=wrap;rounded=0;" parent="1" vertex="1">
          <mxGeometry x="-5740" y="267" width="104" height="30" as="geometry" />
        </mxCell>
        <mxCell id="Lb2MdEJ-lgtvsfjXcVbQ-104" value="End User" style="text;html=1;strokeColor=none;fillColor=none;align=center;verticalAlign=middle;whiteSpace=wrap;rounded=0;" parent="1" vertex="1">
          <mxGeometry x="-5285" y="40.13" width="60" height="30" as="geometry" />
        </mxCell>
        <mxCell id="Lb2MdEJ-lgtvsfjXcVbQ-109" value="&lt;b&gt;&lt;font style=&quot;font-size: 14px;&quot;&gt;Local Machine&lt;/font&gt;&lt;/b&gt;" style="text;html=1;strokeColor=none;fillColor=none;align=center;verticalAlign=middle;whiteSpace=wrap;rounded=0;" parent="1" vertex="1">
          <mxGeometry x="-6220" y="280" width="118.5" height="30" as="geometry" />
        </mxCell>
      </root>
    </mxGraphModel>
  </diagram>
</mxfile>
